HIERARCHY
ROOT reference
{
  OFFSET 0 0 0
  CHANNELS 6 Xposition Yposition Zposition Zrotation Xrotation Yrotation
  JOINT Hips
  {
    OFFSET 366.965 89.8555 201.872
    CHANNELS 3 Zrotation Xrotation Yrotation
    JOINT RightUpLeg
    {
      OFFSET -9.27238 -1.56811 0.0123499
      CHANNELS 3 Zrotation Xrotation Yrotation
      JOINT RightLeg
      {
        OFFSET 0.00682797 -41.8882 0.0419786
        CHANNELS 3 Zrotation Xrotation Yrotation
        JOINT RightFoot
        {
          OFFSET 0.530869 -42.1265 0.242224
          CHANNELS 3 Zrotation Xrotation Yrotation
          End Site
          {
            OFFSET 0 -7.69 17.5
          }
        }
      }
    }
    JOINT LeftUpLeg
    {
      OFFSET 9.28391 -1.61639 -0.0258413
      CHANNELS 3 Zrotation Xrotation Yrotation
      JOINT LeftLeg
      {
        OFFSET 0.0291166 -41.8727 -0.014263
        CHANNELS 3 Zrotation Xrotation Yrotation
        JOINT LeftFoot
        {
          OFFSET -0.125672 -41.4933 -0.195947
          CHANNELS 3 Zrotation Xrotation Yrotation
          End Site
          {
            OFFSET 0 -7.69 17.5
          }
        }
      }
    }
    JOINT Spine
    {
      OFFSET 0.0325614 14.2957 0.0242834
      CHANNELS 3 Zrotation Xrotation Yrotation
      JOINT Spine1
      {
        OFFSET 0.00746153 9.71731 0.0172653
        CHANNELS 3 Zrotation Xrotation Yrotation
        JOINT Spine2
        {
          OFFSET 0.0283815 10.1155 -0.00252583
          CHANNELS 3 Zrotation Xrotation Yrotation
          JOINT Spine3
          {
            OFFSET 0.0279172 9.71841 -0.00465252
            CHANNELS 3 Zrotation Xrotation Yrotation
            JOINT Neck
            {
              OFFSET 0.0182001 10.3765 0.0184284
              CHANNELS 3 Zrotation Xrotation Yrotation
              JOINT Head
              {
                OFFSET 0.0113688 9.47343 0.00632939
                CHANNELS 3 Zrotation Xrotation Yrotation
                End Site
                {
                  OFFSET 0 15.95 0
                }
              }
            }
            JOINT RightShoulder
            {
              OFFSET -3.17351 6.93492 0.00767284
              CHANNELS 3 Zrotation Xrotation Yrotation
              JOINT RightArm
              {
                OFFSET -12.7835 -0.0133269 0.0174019
                CHANNELS 3 Zrotation Xrotation Yrotation
                JOINT RightForeArm
                {
                  OFFSET -26.5112 -0.0170228 0.0247955
                  CHANNELS 3 Zrotation Xrotation Yrotation
                  JOINT RightHand
                  {
                    OFFSET -25.9918 -0.0199622 0.0218897
                    CHANNELS 3 Zrotation Xrotation Yrotation
                    JOINT RightHandThumb1
                    {
                      OFFSET -2.48905 0.190105 3.12053
                      CHANNELS 3 Zrotation Xrotation Yrotation
                      JOINT RightHandThumb2
                      {
                        OFFSET -3.68274 0 0
                        CHANNELS 3 Zrotation Xrotation Yrotation
                        JOINT RightHandThumb3
                        {
                          OFFSET -2.55832 0 0
                          CHANNELS 3 Zrotation Xrotation Yrotation
                          End Site
                          {
                            OFFSET -2.194 0 0
                          }
                        }
                      }
                    }
                    JOINT RightInHandIndex
                    {
                      OFFSET -3.22368 0.508421 1.97842
                      CHANNELS 3 Zrotation Xrotation Yrotation
                      JOINT RightHandIndex1
                      {
                        OFFSET -5.21684 -0.091368 0.999158
                        CHANNELS 3 Zrotation Xrotation Yrotation
                        JOINT RightHandIndex2
                        {
                          OFFSET -3.61937 0 0
                          CHANNELS 3 Zrotation Xrotation Yrotation
                          JOINT RightHandIndex3
                          {
                            OFFSET -2.0521 0 0
                            CHANNELS 3 Zrotation Xrotation Yrotation
                            End Site
                            {
                              OFFSET -1.805 0 0
                            }
                          }
                        }
                      }
                    }
                    JOINT RightInHandMiddle
                    {
                      OFFSET -3.38211 0.517263 0.756737
                      CHANNELS 3 Zrotation Xrotation Yrotation
                      JOINT RightHandMiddle1
                      {
                        OFFSET -5.17411 -0.084 0.313895
                        CHANNELS 3 Zrotation Xrotation Yrotation
                        JOINT RightHandMiddle2
                        {
                          OFFSET -3.94947 0 0
                          CHANNELS 3 Zrotation Xrotation Yrotation
                          JOINT RightHandMiddle3
                          {
                            OFFSET -2.47579 0 0
                            CHANNELS 3 Zrotation Xrotation Yrotation
                            End Site
                            {
                              OFFSET -1.975 0 0
                            }
                          }
                        }
                      }
                    }
                    JOINT RightInHandRing
                    {
                      OFFSET -3.36516 0.537895 -0.128947
                      CHANNELS 3 Zrotation Xrotation Yrotation
                      JOINT RightHandRing1
                      {
                        OFFSET -4.63474 -0.022105 -0.478947
                        CHANNELS 3 Zrotation Xrotation Yrotation
                        JOINT RightHandRing2
                        {
                          OFFSET -3.44238 0 0
                          CHANNELS 3 Zrotation Xrotation Yrotation
                          JOINT RightHandRing3
                          {
                            OFFSET -2.3881 0 0
                            CHANNELS 3 Zrotation Xrotation Yrotation
                            End Site
                            {
                              OFFSET -1.857 0 0
                            }
                          }
                        }
                      }
                    }
                    JOINT RightInHandPinky
                    {
                      OFFSET -3.16105 0.469368 -1.20179
                      CHANNELS 3 Zrotation Xrotation Yrotation
                      JOINT RightHandPinky1
                      {
                        OFFSET -4.14105 -0.022105 -1.09053
                        CHANNELS 3 Zrotation Xrotation Yrotation
                        JOINT RightHandPinky2
                        {
                          OFFSET -2.75653 0 0
                          CHANNELS 3 Zrotation Xrotation Yrotation
                          JOINT RightHandPinky3
                          {
                            OFFSET -1.74189 0 0
                            CHANNELS 3 Zrotation Xrotation Yrotation
                            End Site
                            {
                              OFFSET -1.645 0 0
                            }
                          }
                        }
                      }
                    }
                  }
                }
              }
            }
            JOINT LeftShoulder
            {
              OFFSET 3.23633 6.91116 -0.0162332
              CHANNELS 3 Zrotation Xrotation Yrotation
              JOINT LeftArm
              {
                OFFSET 12.8112 -0.0136289 -0.0286256
                CHANNELS 3 Zrotation Xrotation Yrotation
                JOINT LeftForeArm
                {
                  OFFSET 26.502 -0.0235899 -0.00806802
                  CHANNELS 3 Zrotation Xrotation Yrotation
                  JOINT LeftHand
                  {
                    OFFSET 25.9974 -0.0321613 -0.027004
                    CHANNELS 3 Zrotation Xrotation Yrotation
                    JOINT LeftHandThumb1
                    {
                      OFFSET 2.48905 0.190105 3.12053
                      CHANNELS 3 Zrotation Xrotation Yrotation
                      JOINT LeftHandThumb2
                      {
                        OFFSET 3.68274 0 0
                        CHANNELS 3 Zrotation Xrotation Yrotation
                        JOINT LeftHandThumb3
                        {
                          OFFSET 2.55832 0 0
                          CHANNELS 3 Zrotation Xrotation Yrotation
                          End Site
                          {
                            OFFSET 2.194 0 0
                          }
                        }
                      }
                    }
                    JOINT LeftInHandIndex
                    {
                      OFFSET 3.22368 0.508421 1.97842
                      CHANNELS 3 Zrotation Xrotation Yrotation
                      JOINT LeftHandIndex1
                      {
                        OFFSET 5.21684 -0.091368 0.999158
                        CHANNELS 3 Zrotation Xrotation Yrotation
                        JOINT LeftHandIndex2
                        {
                          OFFSET 3.61937 0 0
                          CHANNELS 3 Zrotation Xrotation Yrotation
                          JOINT LeftHandIndex3
                          {
                            OFFSET 2.0521 0 0
                            CHANNELS 3 Zrotation Xrotation Yrotation
                            End Site
                            {
                              OFFSET 1.805 0 0
                            }
                          }
                        }
                      }
                    }
                    JOINT LeftInHandMiddle
                    {
                      OFFSET 3.38211 0.517263 0.756737
                      CHANNELS 3 Zrotation Xrotation Yrotation
                      JOINT LeftHandMiddle1
                      {
                        OFFSET 5.17411 -0.084 0.313895
                        CHANNELS 3 Zrotation Xrotation Yrotation
                        JOINT LeftHandMiddle2
                        {
                          OFFSET 3.94947 0 0
                          CHANNELS 3 Zrotation Xrotation Yrotation
                          JOINT LeftHandMiddle3
                          {
                            OFFSET 2.47579 0 0
                            CHANNELS 3 Zrotation Xrotation Yrotation
                            End Site
                            {
                              OFFSET 1.975 0 0
                            }
                          }
                        }
                      }
                    }
                    JOINT LeftInHandRing
                    {
                      OFFSET 3.36516 0.537895 -0.128947
                      CHANNELS 3 Zrotation Xrotation Yrotation
                      JOINT LeftHandRing1
                      {
                        OFFSET 4.63474 -0.022105 -0.478947
                        CHANNELS 3 Zrotation Xrotation Yrotation
                        JOINT LeftHandRing2
                        {
                          OFFSET 3.44238 0 0
                          CHANNELS 3 Zrotation Xrotation Yrotation
                          JOINT LeftHandRing3
                          {
                            OFFSET 2.3881 0 0
                            CHANNELS 3 Zrotation Xrotation Yrotation
                            End Site
                            {
                              OFFSET 1.857 0 0
                            }
                          }
                        }
                      }
                    }
                    JOINT LeftInHandPinky
                    {
                      OFFSET 3.16105 0.469368 -1.20179
                      CHANNELS 3 Zrotation Xrotation Yrotation
                      JOINT LeftHandPinky1
                      {
                        OFFSET 4.14105 -0.022105 -1.09053
                        CHANNELS 3 Zrotation Xrotation Yrotation
                        JOINT LeftHandPinky2
                        {
                          OFFSET 2.75653 0 0
                          CHANNELS 3 Zrotation Xrotation Yrotation
                          JOINT LeftHandPinky3
                          {
                            OFFSET 1.74189 0 0
                            CHANNELS 3 Zrotation Xrotation Yrotation
                            End Site
                            {
                              OFFSET 1.645 0 0
                            }
                          }
                        }
                      }
                    }
                  }
                }
              }
            }
          }
        }
      }
    }
  }
}
MOTION
Frames: 2
Frame Time: 0.00833333
1.500000000000000000e+02 0.000000000000000000e+00 0.000000000000000000e+00 0.000000000000000000e+00 0.000000000000000000e+00 -0.000000000000000000e+00 -6.208589559590243535e-03 -3.005285422938418997e-03 -3.317444871112798337e-03 -5.177560920632873209e-03 -4.627377959229505081e-03 4.282178296948645668e-04 -1.596441484458091574e-03 -5.983918906701302977e-03 9.192203964552565776e-02 -1.884479451855708074e-02 1.342086199702676418e-02 -7.749707545008722998e-02 -7.896746901345202962e-03 3.935252078567976625e-02 -7.034272580073341885e-02 -1.106233460084084380e-01 -5.870805207549518318e-02 8.348413429611083181e-02 4.754920305791830726e-02 -2.246473475378765045e-02 2.232656764309814620e-02 -9.091035012741451038e-05 2.082841030753732666e-03 3.379342565073272051e-03 -9.617407684785662816e-05 5.597952794613364263e-04 8.667181328941871285e-04 -1.327535322675813499e-04 1.162322596881182422e-03 8.450646827232162570e-04 9.235832065735495632e-05 -5.415753875896467699e-05 -1.419918854369392122e-04 -7.590338042938467962e-04 -3.551094179902230998e-03 -1.039766802461232487e-02 -6.493600480971848700e-03 1.733361289001698544e-03 4.017863292666455297e-03 -4.105803543372399389e-02 -2.152006443917917761e-02 -1.204279833231097496e-01 -3.702946022193533415e-01 -1.319084539015538161e-02 -2.068145427371252398e-01 -1.094495968811117770e-01 -3.533663715182491089e-02 -3.032101700066805114e-02 -1.511754330920955791e-01 -1.524074196525240787e-01 -1.561489436820146237e-01 0.000000000000000000e+00 0.000000000000000000e+00 0.000000000000000000e+00 -1.552903437853993662e-15 3.939407956881867353e-15 0.000000000000000000e+00 -1.797236020036255573e-15 7.153751273004470734e-16 0.000000000000000000e+00 2.609212116964530747e-15 -1.531314122087909195e-15 -1.791037958106782079e-16 0.000000000000000000e+00 0.000000000000000000e+00 0.000000000000000000e+00 0.000000000000000000e+00 3.161591274255037954e-15 2.266726845868125482e-15 0.000000000000000000e+00 1.323724851873938544e-15 7.245414579199727525e-16 2.609212116964530747e-15 -1.531314122087909195e-15 -1.791037958106782079e-16 0.000000000000000000e+00 1.051445041299674238e-15 -6.664642487582371975e-16 0.000000000000000000e+00 2.340053630865949545e-15 1.378760327971489033e-15 0.000000000000000000e+00 1.448760960251814777e-15 -3.087439827378732027e-16 2.609212116964530747e-15 -1.531314122087909195e-15 -1.791037958106782079e-16 0.000000000000000000e+00 0.000000000000000000e+00 0.000000000000000000e+00 0.000000000000000000e+00 1.470944777124339036e-15 -6.459358816077510359e-16 0.000000000000000000e+00 2.383319648627531816e-15 1.046804652747060705e-15 2.609212116964530747e-15 -1.531314122087909195e-15 -1.791037958106782079e-16 0.000000000000000000e+00 0.000000000000000000e+00 0.000000000000000000e+00 0.000000000000000000e+00 1.211544298751698985e-15 2.610600669475335453e-15 0.000000000000000000e+00 -2.063173761771130211e-16 -3.268609637468931446e-16 2.856289719567227728e-02 -1.923068100522279302e-03 7.765980826387927638e-02 1.539273344868782520e-02 -9.173503725031534328e-03 -7.261105126126493614e-02 5.676236260286566908e-03 4.652597861998288573e-04 1.908276585170814131e-03 9.822839418387466909e-03 7.607174213244824110e-03 -3.040234101648348758e-02 0.000000000000000000e+00 0.000000000000000000e+00 0.000000000000000000e+00 3.067424917154918672e-15 -1.016029225836750093e-15 0.000000000000000000e+00 -4.456817899543801363e-17 9.194488086081042353e-17 0.000000000000000000e+00 2.725390050283576452e-15 1.131380283628002665e-15 1.050988674670976753e-15 0.000000000000000000e+00 0.000000000000000000e+00 0.000000000000000000e+00 0.000000000000000000e+00 1.033599460570137161e-15 4.123623422684084652e-17 0.000000000000000000e+00 1.370539721464287194e-15 6.957281610159142556e-17 2.725390050283576452e-15 1.131380283628002665e-15 1.050988674670976753e-15 0.000000000000000000e+00 -6.801544959476440089e-16 2.144001750485826261e-16 0.000000000000000000e+00 2.674309502920559453e-15 1.512655308174361953e-15 0.000000000000000000e+00 1.130628593479850688e-15 -8.539985591277630405e-16 2.725390050283576452e-15 1.131380283628002665e-15 1.050988674670976753e-15 0.000000000000000000e+00 0.000000000000000000e+00 0.000000000000000000e+00 0.000000000000000000e+00 -2.300340003270754696e-16 1.725845412462056350e-16 0.000000000000000000e+00 3.255405844214504511e-16 -5.301834573270507637e-16 2.725390050283576452e-15 1.131380283628002665e-15 1.050988674670976753e-15 0.000000000000000000e+00 0.000000000000000000e+00 0.000000000000000000e+00 0.000000000000000000e+00 -5.769452839372056647e-16 2.636094996624565252e-16 0.000000000000000000e+00 1.703548064797054928e-16 1.648511710909123862e-16
1.500000000000000000e+02 0.000000000000000000e+00 0.000000000000000000e+00 0.000000000000000000e+00 0.000000000000000000e+00 -0.000000000000000000e+00 2.801289532289060694e-03 1.493348578250314846e-03 -2.423573860749370318e-05 -4.564559126051612875e-04 -2.841322061252996023e-03 -1.686720570388729147e-03 6.195399391420309664e-04 -1.512987169433627644e-03 4.787315773923666792e-03 9.222335152786048651e-02 -2.000980316506376436e-02 -4.600385724968612117e-02 7.503758774866239878e-03 -6.780671320599114538e-02 6.742183568061810295e-02 4.399658593127710182e-02 8.837590063556381714e-02 -3.891547430241092120e-02 2.810913477942282059e-03 1.096076302063462432e-03 9.200118353764435682e-04 -3.115431364584345889e-03 -2.573149929637894712e-03 3.085670519982970303e-03 -7.098951412590010163e-04 -6.291816213579431039e-04 1.176869460616395595e-03 -1.203305377117932801e-03 -1.150315275528863892e-03 1.709914169204529823e-03 2.047673923866581995e-04 2.531694243808599567e-05 2.529522363609241326e-04 -1.661916947905089318e-03 9.211090433392373975e-03 -2.935426578917353993e-02 4.134089151574005597e-03 -3.771215888834833496e-03 1.493606834006704596e-02 -2.927944006429546858e-02 -7.700113465925423860e-03 -1.068632046123103446e-01 -4.258174395355214525e-02 2.114130087869067059e-02 1.985196928323459259e-02 -1.652427235789857840e-01 -8.249978285001803580e-02 3.325889333604824250e-02 -2.173803698684871888e-01 -5.501619954797097867e-01 -2.393614128488816273e-01 0.000000000000000000e+00 0.000000000000000000e+00 0.000000000000000000e+00 -4.758062312877554183e-15 -4.952858766010260247e-15 0.000000000000000000e+00 3.217370336868853684e-15 -6.072338748938932985e-15 0.000000000000000000e+00 2.635473724690228056e-15 2.831327966408443867e-15 -1.181670544917485377e-15 0.000000000000000000e+00 0.000000000000000000e+00 0.000000000000000000e+00 0.000000000000000000e+00 1.904120337282264040e-16 2.536447884869526759e-15 0.000000000000000000e+00 3.442918617966732903e-15 -5.118037541187079354e-16 2.635473724690228056e-15 2.831327966408443867e-15 -1.181670544917485377e-15 0.000000000000000000e+00 4.315682256317981013e-15 7.649865063569139931e-16 0.000000000000000000e+00 -8.263040820264662155e-16 1.735442839532058494e-15 0.000000000000000000e+00 1.057102757124920361e-15 1.889269222745218372e-15 2.635473724690228056e-15 2.831327966408443867e-15 -1.181670544917485377e-15 0.000000000000000000e+00 0.000000000000000000e+00 0.000000000000000000e+00 0.000000000000000000e+00 3.967426945907528875e-15 3.548486567555561374e-16 0.000000000000000000e+00 -1.816470432010955180e-15 6.817719756483248145e-16 2.635473724690228056e-15 2.831327966408443867e-15 -1.181670544917485377e-15 0.000000000000000000e+00 0.000000000000000000e+00 0.000000000000000000e+00 0.000000000000000000e+00 -5.745399529073297064e-17 3.242389608526032418e-16 0.000000000000000000e+00 -5.928371923075376586e-16 -2.465222467954438117e-15 2.985978647251067656e-03 2.059902158419696719e-02 -7.343714501054940044e-03 1.497673599096089811e-02 -1.198748198815631841e-02 -2.831868714518716648e-02 5.884197977180670447e-03 1.328680970615359926e-02 2.436174743583174873e-02 -9.142490190442251891e-03 -1.208283685858910390e-02 3.054957412237606362e-02 0.000000000000000000e+00 0.000000000000000000e+00 0.000000000000000000e+00 -3.777505755174425920e-15 2.068016166530073751e-15 0.000000000000000000e+00 -2.870442064737504937e-17 2.499725026953125138e-15 0.000000000000000000e+00 -1.164523377679300611e-15 1.678469172276731250e-15 4.081478510136248586e-16 0.000000000000000000e+00 0.000000000000000000e+00 0.000000000000000000e+00 0.000000000000000000e+00 9.503038623602654929e-16 2.101872004126245442e-15 0.000000000000000000e+00 -3.162489728749536238e-15 1.199596139518697140e-15 -1.164523377679300611e-15 1.678469172276731250e-15 4.081478510136248586e-16 0.000000000000000000e+00 -1.169869106674043876e-15 4.838120392816713398e-17 0.000000000000000000e+00 -5.052331309075095727e-17 1.719889003831099249e-15 0.000000000000000000e+00 9.458411108441139060e-16 -1.755130145082569832e-15 -1.164523377679300611e-15 1.678469172276731250e-15 4.081478510136248586e-16 0.000000000000000000e+00 0.000000000000000000e+00 0.000000000000000000e+00 0.000000000000000000e+00 -4.231076392371341494e-16 8.595003035059691903e-17 0.000000000000000000e+00 1.132625911562675396e-16 4.643344293999739408e-16 -1.164523377679300611e-15 1.678469172276731250e-15 4.081478510136248586e-16 0.000000000000000000e+00 0.000000000000000000e+00 0.000000000000000000e+00 0.000000000000000000e+00 7.656619374689324363e-16 4.936817893308341831e-16 0.000000000000000000e+00 -4.490388115543491565e-16 8.903286680666124175e-16
